# xmcd
#
# Track frame offsets:
#	150
#	20983
#	36413
#	54646
#	75720
#	92180
#	107636
#	122942
#	138061
#	155628
#	172906
#	190699
#	210722
#	231419
#
# Disc length: 3335 seconds
#
# Revision: 3
# Processed by: cddbd v1.5.2PL0 Copyright (c) Steve Scherf et al.
# Submitted via: EasyCDDAExtractor 15.3.0.1
#
DISCID=c30d050e
DTITLE=Ricardo Montaner - Todo Y Nada (Edicion Especial)
DYEAR=2006
DGENRE=Latin
TTITLE0=Cuando A Mi Lado Estas
TTITLE1=Nada
TTITLE2=Mal De Amor
TTITLE3=Hablan
TTITLE4=Todo
TTITLE5=La Mujer Que Me Robe
TTITLE6=Grito De Dolor
TTITLE7=Nada (Version Clasica)
TTITLE8=Ahora Se
TTITLE9=Vida Eterna
TTITLE10=Tengo Verano
TTITLE11=Herida De Amor
TTITLE12=Cuando A Mi Lado Estas (D'Motion Brothers Radio Mix)
TTITLE13=Tengo Verano (Version Dance)
EXTD=
EXTT0=
EXTT1=
EXTT2=
EXTT3=
EXTT4=
EXTT5=
EXTT6=
EXTT7=
EXTT8=
EXTT9=
EXTT10=
EXTT11=
EXTT12=
EXTT13=
PLAYORDER=
